<svg width="54" height="16" viewBox="0 0 54 16" fill="none" xmlns="http://www.w3.org/2000/svg">
<path d="M0 0H54V16H0V0Z" fill="#FE5F55"/>
<path d="M0 0H54V16H0V0Z" fill="#FE5F55"/>
<path d="M13.5703 9.50977V3.46875H14.6953V9.50977C14.6953 10.0723 14.5801 10.5469 14.3496 10.9336C14.1191 11.3203 13.8008 11.6152 13.3945 11.8184C12.9922 12.0176 12.5293 12.1172 12.0059 12.1172C11.4824 12.1172 11.0176 12.0273 10.6113 11.8477C10.2051 11.668 9.88672 11.3945 9.65625 11.0273C9.42578 10.6602 9.31055 10.1973 9.31055 9.63867H10.4414C10.4414 9.99805 10.5078 10.293 10.6406 10.5234C10.7734 10.7539 10.957 10.9238 11.1914 11.0332C11.4297 11.1426 11.7012 11.1973 12.0059 11.1973C12.3027 11.1973 12.5684 11.1348 12.8027 11.0098C13.041 10.8809 13.2285 10.6914 13.3652 10.4414C13.502 10.1875 13.5703 9.87695 13.5703 9.50977ZM16.1602 8.90039V8.76562C16.1602 8.30859 16.2266 7.88477 16.3594 7.49414C16.4922 7.09961 16.6836 6.75781 16.9336 6.46875C17.1836 6.17578 17.4863 5.94922 17.8418 5.78906C18.1973 5.625 18.5957 5.54297 19.0371 5.54297C19.4824 5.54297 19.8828 5.625 20.2383 5.78906C20.5977 5.94922 20.9023 6.17578 21.1523 6.46875C21.4062 6.75781 21.5996 7.09961 21.7324 7.49414C21.8652 7.88477 21.9316 8.30859 21.9316 8.76562V8.90039C21.9316 9.35742 21.8652 9.78125 21.7324 10.1719C21.5996 10.5625 21.4062 10.9043 21.1523 11.1973C20.9023 11.4863 20.5996 11.7129 20.2441 11.877C19.8926 12.0371 19.4941 12.1172 19.0488 12.1172C18.6035 12.1172 18.2031 12.0371 17.8477 11.877C17.4922 11.7129 17.1875 11.4863 16.9336 11.1973C16.6836 10.9043 16.4922 10.5625 16.3594 10.1719C16.2266 9.78125 16.1602 9.35742 16.1602 8.90039ZM17.2441 8.76562V8.90039C17.2441 9.2168 17.2812 9.51562 17.3555 9.79688C17.4297 10.0742 17.541 10.3203 17.6895 10.5352C17.8418 10.75 18.0312 10.9199 18.2578 11.0449C18.4844 11.166 18.748 11.2266 19.0488 11.2266C19.3457 11.2266 19.6055 11.166 19.8281 11.0449C20.0547 10.9199 20.2422 10.75 20.3906 10.5352C20.5391 10.3203 20.6504 10.0742 20.7246 9.79688C20.8027 9.51562 20.8418 9.2168 20.8418 8.90039V8.76562C20.8418 8.45312 20.8027 8.1582 20.7246 7.88086C20.6504 7.59961 20.5371 7.35156 20.3848 7.13672C20.2363 6.91797 20.0488 6.74609 19.8223 6.62109C19.5996 6.49609 19.3379 6.43359 19.0371 6.43359C18.7402 6.43359 18.4785 6.49609 18.252 6.62109C18.0293 6.74609 17.8418 6.91797 17.6895 7.13672C17.541 7.35156 17.4297 7.59961 17.3555 7.88086C17.2812 8.1582 17.2441 8.45312 17.2441 8.76562ZM27.1699 10.5352V5.66016H28.2598V12H27.2227L27.1699 10.5352ZM27.375 9.19922L27.8262 9.1875C27.8262 9.60938 27.7812 10 27.6914 10.3594C27.6055 10.7148 27.4648 11.0234 27.2695 11.2852C27.0742 11.5469 26.8184 11.752 26.502 11.9004C26.1855 12.0449 25.8008 12.1172 25.3477 12.1172C25.0391 12.1172 24.7559 12.0723 24.498 11.9824C24.2441 11.8926 24.0254 11.7539 23.8418 11.5664C23.6582 11.3789 23.5156 11.1348 23.4141 10.834C23.3164 10.5332 23.2676 10.1719 23.2676 9.75V5.66016H24.3516V9.76172C24.3516 10.0469 24.3828 10.2832 24.4453 10.4707C24.5117 10.6543 24.5996 10.8008 24.709 10.9102C24.8223 11.0156 24.9473 11.0898 25.084 11.1328C25.2246 11.1758 25.3691 11.1973 25.5176 11.1973C25.9785 11.1973 26.3438 11.1094 26.6133 10.9336C26.8828 10.7539 27.0762 10.5137 27.1934 10.2129C27.3145 9.9082 27.375 9.57031 27.375 9.19922ZM30.9961 6.65625V12H29.9121V5.66016H30.9668L30.9961 6.65625ZM32.9766 5.625L32.9707 6.63281C32.8809 6.61328 32.7949 6.60156 32.7129 6.59766C32.6348 6.58984 32.5449 6.58594 32.4434 6.58594C32.1934 6.58594 31.9727 6.625 31.7812 6.70312C31.5898 6.78125 31.4277 6.89062 31.2949 7.03125C31.1621 7.17188 31.0566 7.33984 30.9785 7.53516C30.9043 7.72656 30.8555 7.9375 30.832 8.16797L30.5273 8.34375C30.5273 7.96094 30.5645 7.60156 30.6387 7.26562C30.7168 6.92969 30.8359 6.63281 30.9961 6.375C31.1562 6.11328 31.3594 5.91016 31.6055 5.76562C31.8555 5.61719 32.1523 5.54297 32.4961 5.54297C32.5742 5.54297 32.6641 5.55273 32.7656 5.57227C32.8672 5.58789 32.9375 5.60547 32.9766 5.625ZM42.4277 11.1094V12H36.8438V11.2207L39.6387 8.10938C39.9824 7.72656 40.248 7.40234 40.4355 7.13672C40.627 6.86719 40.7598 6.62695 40.834 6.41602C40.9121 6.20117 40.9512 5.98242 40.9512 5.75977C40.9512 5.47852 40.8926 5.22461 40.7754 4.99805C40.6621 4.76758 40.4941 4.58398 40.2715 4.44727C40.0488 4.31055 39.7793 4.24219 39.4629 4.24219C39.084 4.24219 38.7676 4.31641 38.5137 4.46484C38.2637 4.60938 38.0762 4.8125 37.9512 5.07422C37.8262 5.33594 37.7637 5.63672 37.7637 5.97656H36.6797C36.6797 5.49609 36.7852 5.05664 36.9961 4.6582C37.207 4.25977 37.5195 3.94336 37.9336 3.70898C38.3477 3.4707 38.8574 3.35156 39.4629 3.35156C40.002 3.35156 40.4629 3.44727 40.8457 3.63867C41.2285 3.82617 41.5215 4.0918 41.7246 4.43555C41.9316 4.77539 42.0352 5.17383 42.0352 5.63086C42.0352 5.88086 41.9922 6.13477 41.9062 6.39258C41.8242 6.64648 41.709 6.90039 41.5605 7.1543C41.416 7.4082 41.2461 7.6582 41.0508 7.9043C40.8594 8.15039 40.6543 8.39258 40.4355 8.63086L38.1504 11.1094H42.4277Z" fill="white"/>
</svg>
