<svg width="54" height="14" viewBox="0 0 54 14" fill="none" xmlns="http://www.w3.org/2000/svg">
<path d="M0 0H54V14H0V0Z" fill="#FE5F55"/>
<path d="M13.5703 8.50977V2.46875H14.6953V8.50977C14.6953 9.07227 14.5801 9.54688 14.3496 9.93359C14.1191 10.3203 13.8008 10.6152 13.3945 10.8184C12.9922 11.0176 12.5293 11.1172 12.0059 11.1172C11.4824 11.1172 11.0176 11.0273 10.6113 10.8477C10.2051 10.668 9.88672 10.3945 9.65625 10.0273C9.42578 9.66016 9.31055 9.19727 9.31055 8.63867H10.4414C10.4414 8.99805 10.5078 9.29297 10.6406 9.52344C10.7734 9.75391 10.957 9.92383 11.1914 10.0332C11.4297 10.1426 11.7012 10.1973 12.0059 10.1973C12.3027 10.1973 12.5684 10.1348 12.8027 10.0098C13.041 9.88086 13.2285 9.69141 13.3652 9.44141C13.502 9.1875 13.5703 8.87695 13.5703 8.50977ZM16.1602 7.90039V7.76562C16.1602 7.30859 16.2266 6.88477 16.3594 6.49414C16.4922 6.09961 16.6836 5.75781 16.9336 5.46875C17.1836 5.17578 17.4863 4.94922 17.8418 4.78906C18.1973 4.625 18.5957 4.54297 19.0371 4.54297C19.4824 4.54297 19.8828 4.625 20.2383 4.78906C20.5977 4.94922 20.9023 5.17578 21.1523 5.46875C21.4062 5.75781 21.5996 6.09961 21.7324 6.49414C21.8652 6.88477 21.9316 7.30859 21.9316 7.76562V7.90039C21.9316 8.35742 21.8652 8.78125 21.7324 9.17188C21.5996 9.5625 21.4062 9.9043 21.1523 10.1973C20.9023 10.4863 20.5996 10.7129 20.2441 10.877C19.8926 11.0371 19.4941 11.1172 19.0488 11.1172C18.6035 11.1172 18.2031 11.0371 17.8477 10.877C17.4922 10.7129 17.1875 10.4863 16.9336 10.1973C16.6836 9.9043 16.4922 9.5625 16.3594 9.17188C16.2266 8.78125 16.1602 8.35742 16.1602 7.90039ZM17.2441 7.76562V7.90039C17.2441 8.2168 17.2812 8.51562 17.3555 8.79688C17.4297 9.07422 17.541 9.32031 17.6895 9.53516C17.8418 9.75 18.0312 9.91992 18.2578 10.0449C18.4844 10.166 18.748 10.2266 19.0488 10.2266C19.3457 10.2266 19.6055 10.166 19.8281 10.0449C20.0547 9.91992 20.2422 9.75 20.3906 9.53516C20.5391 9.32031 20.6504 9.07422 20.7246 8.79688C20.8027 8.51562 20.8418 8.2168 20.8418 7.90039V7.76562C20.8418 7.45312 20.8027 7.1582 20.7246 6.88086C20.6504 6.59961 20.5371 6.35156 20.3848 6.13672C20.2363 5.91797 20.0488 5.74609 19.8223 5.62109C19.5996 5.49609 19.3379 5.43359 19.0371 5.43359C18.7402 5.43359 18.4785 5.49609 18.252 5.62109C18.0293 5.74609 17.8418 5.91797 17.6895 6.13672C17.541 6.35156 17.4297 6.59961 17.3555 6.88086C17.2812 7.1582 17.2441 7.45312 17.2441 7.76562ZM27.1699 9.53516V4.66016H28.2598V11H27.2227L27.1699 9.53516ZM27.375 8.19922L27.8262 8.1875C27.8262 8.60938 27.7812 9 27.6914 9.35938C27.6055 9.71484 27.4648 10.0234 27.2695 10.2852C27.0742 10.5469 26.8184 10.752 26.502 10.9004C26.1855 11.0449 25.8008 11.1172 25.3477 11.1172C25.0391 11.1172 24.7559 11.0723 24.498 10.9824C24.2441 10.8926 24.0254 10.7539 23.8418 10.5664C23.6582 10.3789 23.5156 10.1348 23.4141 9.83398C23.3164 9.5332 23.2676 9.17188 23.2676 8.75V4.66016H24.3516V8.76172C24.3516 9.04688 24.3828 9.2832 24.4453 9.4707C24.5117 9.6543 24.5996 9.80078 24.709 9.91016C24.8223 10.0156 24.9473 10.0898 25.084 10.1328C25.2246 10.1758 25.3691 10.1973 25.5176 10.1973C25.9785 10.1973 26.3438 10.1094 26.6133 9.93359C26.8828 9.75391 27.0762 9.51367 27.1934 9.21289C27.3145 8.9082 27.375 8.57031 27.375 8.19922ZM30.9961 5.65625V11H29.9121V4.66016H30.9668L30.9961 5.65625ZM32.9766 4.625L32.9707 5.63281C32.8809 5.61328 32.7949 5.60156 32.7129 5.59766C32.6348 5.58984 32.5449 5.58594 32.4434 5.58594C32.1934 5.58594 31.9727 5.625 31.7812 5.70312C31.5898 5.78125 31.4277 5.89062 31.2949 6.03125C31.1621 6.17188 31.0566 6.33984 30.9785 6.53516C30.9043 6.72656 30.8555 6.9375 30.832 7.16797L30.5273 7.34375C30.5273 6.96094 30.5645 6.60156 30.6387 6.26562C30.7168 5.92969 30.8359 5.63281 30.9961 5.375C31.1562 5.11328 31.3594 4.91016 31.6055 4.76562C31.8555 4.61719 32.1523 4.54297 32.4961 4.54297C32.5742 4.54297 32.6641 4.55273 32.7656 4.57227C32.8672 4.58789 32.9375 4.60547 32.9766 4.625ZM38.4199 6.20117H39.1934C39.5723 6.20117 39.8848 6.13867 40.1309 6.01367C40.3809 5.88477 40.5664 5.71094 40.6875 5.49219C40.8125 5.26953 40.875 5.01953 40.875 4.74219C40.875 4.41406 40.8203 4.13867 40.7109 3.91602C40.6016 3.69336 40.4375 3.52539 40.2188 3.41211C40 3.29883 39.7227 3.24219 39.3867 3.24219C39.082 3.24219 38.8125 3.30273 38.5781 3.42383C38.3477 3.54102 38.166 3.70898 38.0332 3.92773C37.9043 4.14648 37.8398 4.4043 37.8398 4.70117H36.7559C36.7559 4.26758 36.8652 3.87305 37.084 3.51758C37.3027 3.16211 37.6094 2.87891 38.0039 2.66797C38.4023 2.45703 38.8633 2.35156 39.3867 2.35156C39.9023 2.35156 40.3535 2.44336 40.7402 2.62695C41.127 2.80664 41.4277 3.07617 41.6426 3.43555C41.8574 3.79102 41.9648 4.23438 41.9648 4.76562C41.9648 4.98047 41.9141 5.21094 41.8125 5.45703C41.7148 5.69922 41.5605 5.92578 41.3496 6.13672C41.1426 6.34766 40.873 6.52148 40.541 6.6582C40.209 6.79102 39.8105 6.85742 39.3457 6.85742H38.4199V6.20117ZM38.4199 7.0918V6.44141H39.3457C39.8887 6.44141 40.3379 6.50586 40.6934 6.63477C41.0488 6.76367 41.3281 6.93555 41.5312 7.15039C41.7383 7.36523 41.8828 7.60156 41.9648 7.85938C42.0508 8.11328 42.0938 8.36719 42.0938 8.62109C42.0938 9.01953 42.0254 9.37305 41.8887 9.68164C41.7559 9.99023 41.5664 10.252 41.3203 10.4668C41.0781 10.6816 40.793 10.8438 40.4648 10.9531C40.1367 11.0625 39.7793 11.1172 39.3926 11.1172C39.0215 11.1172 38.6719 11.0645 38.3438 10.959C38.0195 10.8535 37.7324 10.7012 37.4824 10.502C37.2324 10.2988 37.0371 10.0508 36.8965 9.75781C36.7559 9.46094 36.6855 9.12305 36.6855 8.74414H37.7695C37.7695 9.04102 37.834 9.30078 37.9629 9.52344C38.0957 9.74609 38.2832 9.91992 38.5254 10.0449C38.7715 10.166 39.0605 10.2266 39.3926 10.2266C39.7246 10.2266 40.0098 10.1699 40.248 10.0566C40.4902 9.93945 40.6758 9.76367 40.8047 9.5293C40.9375 9.29492 41.0039 9 41.0039 8.64453C41.0039 8.28906 40.9297 7.99805 40.7812 7.77148C40.6328 7.54102 40.4219 7.37109 40.1484 7.26172C39.8789 7.14844 39.5605 7.0918 39.1934 7.0918H38.4199Z" fill="white"/>
</svg>
