<svg width="56" height="56" viewBox="0 0 56 56" fill="none" xmlns="http://www.w3.org/2000/svg">
<circle cx="28" cy="28" r="28" fill="#525C90" fill-opacity="0.95"/>
<path d="M42.2504 25.8557H42.2832C42.8483 25.8557 43.3587 26.0957 43.7233 26.4832C44.1 26.8594 44.3333 27.3844 44.3333 27.9656V28.0006V27.9994V28.0331C44.3333 28.6143 44.1 29.1393 43.7233 29.5143C43.3575 29.9018 42.8471 30.1418 42.282 30.1418H42.2479H42.2492H42.0049L40.1322 41.2276C40.0529 41.7258 39.7992 42.1771 39.4188 42.4963L39.4152 42.4988C39.0628 42.81 38.601 43 38.0966 43H17.2343C16.7299 43 16.2681 42.81 15.9133 42.4963L15.9157 42.4988C15.5366 42.182 15.2826 41.7342 15.2012 41.2388L15.1999 41.2263L13.3272 30.1405H13.0501C12.485 30.1405 11.9746 29.9005 11.6101 29.5131C11.4168 29.3208 11.2631 29.0904 11.1583 28.8357C11.0535 28.581 10.9997 28.3072 11 28.0306V27.9956V27.9631C11 27.3819 11.2333 26.8569 11.6101 26.4819C11.9759 26.0945 12.4863 25.8545 13.0514 25.8545H13.0854H13.0842L42.2504 25.8557ZM18.8895 39.2477C19.0258 39.2381 19.1588 39.1999 19.2803 39.1354C19.4017 39.0709 19.509 38.9815 19.5955 38.8727L19.5967 38.8714C19.6891 38.766 19.7592 38.642 19.8027 38.5074C19.8462 38.3727 19.8621 38.2303 19.8495 38.089V38.0927L19.3282 31.128C19.3189 30.9877 19.2817 30.851 19.219 30.726C19.1563 30.6011 19.0694 30.4908 18.9636 30.4018L18.9624 30.4005C18.8599 30.3056 18.7394 30.2334 18.6084 30.1887C18.4775 30.144 18.339 30.1276 18.2016 30.1405H18.2053C18.0689 30.1501 17.9359 30.1883 17.8145 30.2528C17.693 30.3173 17.5857 30.4067 17.4992 30.5155L17.498 30.5168C17.4057 30.6222 17.3356 30.7462 17.292 30.8808C17.2485 31.0155 17.2326 31.1579 17.2452 31.2992V31.2955L17.7666 38.2602C17.7839 38.5301 17.9035 38.7823 18.0995 38.9627L18.1008 38.9639C18.2884 39.1471 18.5372 39.2491 18.7959 39.2489H18.8093H18.808L18.8895 39.2477ZM25.5795 38.1777V31.213V31.203C25.5799 31.0641 25.5527 30.9267 25.4996 30.799C25.4465 30.6713 25.3687 30.5562 25.2708 30.4605C25.1775 30.3599 25.0653 30.2799 24.941 30.2253C24.8167 30.1708 24.6829 30.1428 24.5477 30.143H24.5283C24.3933 30.1426 24.2596 30.1706 24.1355 30.2252C24.0114 30.2798 23.8994 30.3598 23.8064 30.4605C23.7086 30.5565 23.6308 30.6719 23.5777 30.7997C23.5247 30.9276 23.4974 31.0652 23.4977 31.2042V38.1889C23.4977 38.4814 23.6156 38.7452 23.8064 38.9314C23.8997 39.032 24.0119 39.112 24.1362 39.1666C24.2605 39.2212 24.3943 39.2492 24.5295 39.2489H24.5489C24.6839 39.2493 24.8176 39.2214 24.9417 39.1668C25.0658 39.1122 25.1778 39.0321 25.2708 38.9314C25.3699 38.8355 25.4489 38.7196 25.5028 38.5911C25.5567 38.4625 25.5845 38.324 25.5843 38.1839V38.1764L25.5795 38.1777ZM31.8295 38.1777V31.213V31.203C31.8299 31.0641 31.8028 30.9267 31.7497 30.799C31.6966 30.6713 31.6187 30.5562 31.5209 30.4605C31.4276 30.3599 31.3154 30.2799 31.191 30.2253C31.0667 30.1708 30.9329 30.1428 30.7978 30.143H30.7783C30.6433 30.1426 30.5097 30.1706 30.3856 30.2252C30.2614 30.2798 30.1494 30.3598 30.0565 30.4605C29.9587 30.5565 29.8809 30.6719 29.8278 30.7997C29.7747 30.9276 29.7475 31.0652 29.7478 31.2042V38.1889C29.7478 38.4814 29.8657 38.7452 30.0565 38.9314C30.1498 39.032 30.262 39.112 30.3863 39.1666C30.5106 39.2212 30.6444 39.2492 30.7796 39.2489H30.799C30.934 39.2493 31.0676 39.2214 31.1918 39.1668C31.3159 39.1122 31.4279 39.0321 31.5209 38.9314C31.62 38.8355 31.6989 38.7196 31.7529 38.5911C31.8068 38.4625 31.8345 38.324 31.8344 38.1839V38.1764L31.8295 38.1777ZM37.5583 38.2602L38.0796 31.2955C38.0914 31.1546 38.075 31.0128 38.0315 30.8787C37.9881 30.7445 37.9184 30.621 37.8268 30.5155L37.8281 30.5168C37.7417 30.4078 37.6347 30.3181 37.5135 30.2532C37.3923 30.1883 37.2595 30.1495 37.1232 30.1393H37.1196C36.9826 30.1272 36.8447 30.144 36.7143 30.1887C36.5839 30.2334 36.4637 30.3051 36.3612 30.3993L36.3625 30.398C36.2565 30.4868 36.1693 30.5969 36.1062 30.7216C36.0431 30.8462 36.0054 30.9828 35.9954 31.123V31.1267L35.4741 38.0915C35.4623 38.2323 35.4787 38.3742 35.5222 38.5083C35.5656 38.6424 35.6353 38.766 35.7269 38.8714L35.7257 38.8702C35.812 38.9791 35.919 39.0688 36.0402 39.1337C36.1614 39.1986 36.2942 39.2374 36.4305 39.2477H36.5277C36.7867 39.2477 37.0359 39.1457 37.2241 38.9627C37.4227 38.7826 37.5444 38.5294 37.5631 38.2577V38.2539L37.5583 38.2602ZM18.7485 17.886L17.2355 24.7833H15.0869L16.7299 17.4011C16.928 16.4199 17.4469 15.5886 18.1664 15.0074L18.1749 15.0012C18.8989 14.3973 19.8033 14.0688 20.7354 14.0712H20.7816H20.7792H23.4965V14.0612C23.4965 13.7687 23.6144 13.505 23.8052 13.3187C23.8986 13.2178 24.0109 13.1375 24.1354 13.0827C24.26 13.0279 24.394 12.9998 24.5295 13H30.8026C31.087 13 31.3434 13.1212 31.5245 13.3175C31.6223 13.4134 31.7001 13.5289 31.7532 13.6567C31.8062 13.7846 31.8335 13.9222 31.8332 14.0612V14.0712H34.5955C35.5689 14.0712 36.4621 14.4212 37.1621 15.0062L37.1548 14.9999C37.892 15.5917 38.4021 16.4324 38.5949 17.3736L38.5997 17.3998L40.2428 24.782H38.0942L36.5812 17.8848C36.4712 17.4115 36.2123 16.9888 35.8448 16.6823L35.8411 16.6786C35.4834 16.3748 35.0338 16.209 34.5699 16.2099H31.8295V16.2199C31.8299 16.3587 31.8028 16.4962 31.7497 16.6239C31.6966 16.7515 31.6187 16.8667 31.5209 16.9623C31.4276 17.0629 31.3154 17.1429 31.191 17.1975C31.0667 17.2521 30.9329 17.2801 30.7978 17.2798H24.5295C24.3945 17.2802 24.2608 17.2523 24.1367 17.1977C24.0126 17.1431 23.9006 17.063 23.8076 16.9623C23.7098 16.8664 23.632 16.751 23.579 16.6231C23.5259 16.4953 23.4987 16.3576 23.4989 16.2186V16.2086H20.7585C20.2936 16.2081 19.843 16.3748 19.4849 16.6798L19.4886 16.6773C19.1237 16.9813 18.8662 17.4004 18.7558 17.8698L18.7534 17.8848L18.7485 17.886Z" fill="white"/>
</svg>
